<svg xmlns="http://www.w3.org/2000/svg" viewBox="0 0 512 512"><defs><style>.cls-1{fill:#1fb7a2;}.cls-2{fill:#39eac8;}.cls-3{fill:#64cdd8;}.cls-4{fill:#5bbcc1;}.cls-5{fill:#f2bc88;}.cls-6{fill:#e3a76d;}.cls-7{fill:#ff79ab;}.cls-8{fill:#d36a95;}.cls-9{fill:#fff;}.cls-10{fill:#dbdbdd;}.cls-11{fill:#5766ce;}.cls-12{fill:#3342ae;}.cls-13{fill:#29327f;}.cls-14{fill:#252f6d;}.cls-15{fill:#83e5ea;}</style></defs><title>Dental Care</title><g id="BULINE"><circle class="cls-1" cx="256" cy="256" r="256"/></g><g id="Icons"><circle class="cls-2" cx="256.89" cy="215.97" r="176.59"/><path class="cls-3" d="M311.78,241.45a56.61,56.61,0,0,0,.49-7.29,55.16,55.16,0,0,0-16-38.92,41.66,41.66,0,1,0-78.77,0A55.24,55.24,0,0,0,202,241.45a84.11,84.11,0,1,0,109.78,0Z"/><path class="cls-4" d="M287.55,154.21q-1.16-.06-2.34-.06a41.67,41.67,0,0,0-39.39,55.24,55.24,55.24,0,0,0-16,38.93,56.61,56.61,0,0,0,.49,7.29,84.08,84.08,0,0,0,4.21,130.83,84.1,84.1,0,0,1-33.21-145,56.61,56.61,0,0,1-.49-7.29,55.24,55.24,0,0,1,16-38.93,41.66,41.66,0,0,1,70.73-41Z"/><path class="cls-5" d="M494.47,349.27c-.69,1.77-1.4,3.52-2.13,5.27a251.38,251.38,0,0,1-13.41,27.38q-1.43,2.54-2.93,5-4,6.69-8.36,13.11h0a257.06,257.06,0,0,1-57.85,60.6,256.07,256.07,0,0,1-307.39.13A257.12,257.12,0,0,1,43,398.11q-3.54-5.3-6.82-10.77a255.37,255.37,0,0,1-14.76-28.58l0-.07q-2-4.67-3.9-9.42Z"/><path class="cls-6" d="M476,387q-4,6.69-8.36,13.11h0a257.06,257.06,0,0,1-57.85,60.6,256.07,256.07,0,0,1-307.39.13A257.12,257.12,0,0,1,43,398.11q-3.54-5.3-6.82-10.77a311.2,311.2,0,0,1,37-13.09h0c2.2-.64,4.41-1.27,6.67-1.88q6.55-1.77,13.46-3.42l1.56-.37c2-.46,4-.92,6-1.36q8.25-1.85,16.93-3.48,10.32-2,21.19-3.6l.18,0q6.42-1,13-1.86,10.74-1.41,21.93-2.55,3.53-.36,7.1-.68c2.24-.21,4.48-.4,6.74-.59l.63-.05q7.68-.63,15.53-1.12l3.92-.23q3-.18,6-.32,15.27-.76,31.07-1,5.64-.08,11.34-.07h.35q17,0,33.44.66,17.75.71,34.72,2.12,18.72,1.53,36.33,3.9,6.67.89,13.15,1.88l.19,0c15.92,2.45,31,5.38,45,8.72,0,0,0,0,0,0a381.83,381.83,0,0,1,44.87,13.44Q470.54,384.62,476,387Z"/><path class="cls-7" d="M495,348l-.51,1.3c-.69,1.77-1.4,3.52-2.13,5.27a251.38,251.38,0,0,1-13.41,27.38q-1.43,2.54-2.93,5-4,6.69-8.36,13.11h0a257.06,257.06,0,0,1-57.85,60.6q-18.4,1.43-36.84,2.5-4,.24-8,.44-31.55,1.74-63.17,2.45c-3.22.07-6.43.14-9.65.19h0q-76,1.37-152.29-3-15.72-.9-31.47-2l-6-.44A257.12,257.12,0,0,1,43,398.11q-3.54-5.3-6.82-10.77a255.37,255.37,0,0,1-14.76-28.58l0-.07q-2-4.67-3.9-9.42L17,348Z"/><path class="cls-8" d="M492.34,349.27v5.27a251.38,251.38,0,0,1-13.41,27.38q-1.43,2.54-2.93,5-4,6.69-8.36,13.11h0a257.61,257.61,0,0,1-27.9,34.19H424.29c-1.09,0-2.16,0-3.22-.13-.27,0-.53,0-.79-.06-.87-.07-1.73-.16-2.6-.28-.2,0-.41-.05-.61-.09-1-.14-2.06-.34-3.08-.56l-.55-.13c-.83-.19-1.66-.41-2.49-.64-.26-.08-.52-.15-.78-.24-.92-.28-1.85-.58-2.74-.93a.49.49,0,0,1-.16,0c-1-.35-1.89-.76-2.81-1.17-.24-.11-.49-.22-.73-.35-.72-.33-1.43-.68-2.14-1.06-.21-.11-.44-.22-.65-.35-.87-.49-1.74-1-2.58-1.53l-.46-.29c-.7-.47-1.38-.94-2.06-1.43l-.68-.51c-.71-.53-1.4-1.07-2.09-1.65l-.29-.23c-.76-.65-1.51-1.34-2.23-2L390,420c-.57-.57-1.12-1.13-1.66-1.72-.17-.2-.34-.38-.52-.57-.66-.76-1.33-1.53-1.95-2.31a3.09,3.09,0,0,1-.23-.31c-.55-.71-1.09-1.43-1.61-2.17-.15-.22-.3-.45-.46-.67-.49-.74-1-1.49-1.43-2.25-.07-.12-.15-.24-.22-.37-.54-.88-1-1.79-1.51-2.71l-.1-.21h0a52.73,52.73,0,0,1-5.7-24,52.87,52.87,0,0,1-2.17,15.06c0,.09-.05.18-.07.26s-.14.46-.23.68A51.46,51.46,0,0,1,354.67,424a48.37,48.37,0,0,1-29.73,10.23H306.56c-1.09,0-2.16,0-3.22-.13-.27,0-.53,0-.79-.06-.87-.07-1.73-.16-2.59-.28a6.17,6.17,0,0,1-.62-.09c-1-.14-2.06-.34-3.08-.56l-.55-.13c-.83-.19-1.66-.41-2.49-.64-.26-.08-.52-.15-.78-.24-.92-.28-1.84-.58-2.74-.93a.49.49,0,0,1-.16,0c-1-.35-1.89-.76-2.81-1.17-.24-.11-.49-.22-.72-.35-.73-.33-1.44-.68-2.15-1.06-.21-.11-.43-.22-.65-.35-.87-.49-1.74-1-2.58-1.53l-.46-.29c-.7-.47-1.38-.94-2.06-1.43l-.68-.51c-.71-.53-1.4-1.07-2.08-1.65-.1-.07-.19-.16-.3-.23-.76-.65-1.5-1.34-2.23-2l-.55-.55c-.57-.57-1.11-1.13-1.66-1.72-.16-.2-.34-.38-.52-.57-.66-.76-1.32-1.53-1.95-2.31l-.23-.31c-.55-.71-1.08-1.43-1.6-2.17l-.47-.67c-.49-.74-1-1.49-1.43-2.25-.07-.12-.15-.24-.22-.37-.53-.88-1-1.79-1.5-2.71a2.12,2.12,0,0,1-.11-.21h0a52.08,52.08,0,0,1-4.8-14.17q-.3-1.63-.51-3.3a53.19,53.19,0,0,1-.39-6.48,51.25,51.25,0,0,1-.4,6.48c-.13,1.11-.3,2.21-.5,3.3a50.78,50.78,0,0,1-1.27,5.28c0,.09-.05.18-.07.26s-.14.46-.22.68A51.54,51.54,0,0,1,236.94,424a48.34,48.34,0,0,1-29.72,10.23H188.83c-1.09,0-2.15,0-3.22-.13-.27,0-.53,0-.79-.06-.86-.07-1.73-.16-2.59-.28-.2,0-.42-.05-.62-.09-1-.14-2.06-.34-3.07-.56L178,433c-.83-.19-1.66-.41-2.48-.64-.27-.08-.53-.15-.79-.24-.92-.28-1.84-.58-2.74-.93a.38.38,0,0,1-.15,0c-1-.35-1.9-.76-2.82-1.17-.24-.11-.49-.22-.72-.35-.72-.33-1.43-.68-2.14-1.06-.22-.11-.44-.22-.65-.35-.88-.49-1.74-1-2.58-1.53l-.47-.29c-.69-.47-1.38-.94-2.05-1.43l-.69-.51c-.71-.53-1.4-1.07-2.08-1.65-.1-.07-.19-.16-.3-.23-.76-.65-1.5-1.34-2.22-2l-.56-.55c-.57-.57-1.11-1.13-1.66-1.72-.16-.2-.34-.38-.52-.57-.66-.76-1.32-1.53-2-2.31-.08-.1-.15-.21-.22-.31-.56-.71-1.09-1.43-1.61-2.17-.16-.22-.31-.45-.46-.67-.5-.74-1-1.49-1.44-2.25-.07-.12-.15-.24-.22-.37-.53-.88-1-1.79-1.5-2.71l-.11-.21h0a52.73,52.73,0,0,1-5.7-24A52.87,52.87,0,0,1,137,397.84a2,2,0,0,1-.07.26c-.07.22-.14.46-.22.68A51.48,51.48,0,0,1,119.21,424a48.34,48.34,0,0,1-29.72,10.23H72.27A257.57,257.57,0,0,1,43,398.11q-3.54-5.3-6.82-10.77a255.37,255.37,0,0,1-14.76-28.58l0-.07v-9.42Z"/><path class="cls-9" d="M139.16,288.08v69.05c0,1,0,2-.09,3a49.36,49.36,0,0,1-5.6,20.09c-.29.55-.58,1.09-.89,1.62s-.5.86-.77,1.28-.65,1-1,1.55-.51.75-.78,1.12-.57.81-.88,1.21-.39.52-.6.78c-.49.63-1,1.24-1.51,1.84-.26.3-.53.6-.8.89a46.58,46.58,0,0,1-3.37,3.37c-.29.27-.59.53-.89.79-.81.71-1.65,1.39-2.52,2.05-.27.21-.55.42-.83.61q-1.27.93-2.61,1.77l-.79.49q-.92.56-1.86,1.08c-.5.28-1,.55-1.53.8s-1.27.63-1.92.92l-.88.39-.47.2-.77.32c-1,.4-2,.77-3.08,1.1-.48.16-1,.3-1.44.44s-1,.27-1.45.39l-.77.19c-.43.11-.86.2-1.29.29s-.79.17-1.18.23l-.76.14-1,.16-.76.11c-1.07.14-2.16.25-3.26.32-.4,0-.81.05-1.22.06l-.69,0-1.39,0H71.1A49.38,49.38,0,0,1,43,398.11q-3.54-5.3-6.82-10.77a255.37,255.37,0,0,1-14.76-28.58c0-.54,0-1.08,0-1.63V288.08a16.47,16.47,0,0,1,16.45-16.45h84.83A16.45,16.45,0,0,1,139.16,288.08Z"/><path class="cls-10" d="M133.47,380.23c-.29.55-.58,1.09-.89,1.62s-.5.86-.77,1.28-.65,1-1,1.55-.51.75-.78,1.12-.57.81-.88,1.21-.39.52-.6.78c-.49.63-1,1.24-1.51,1.84-.26.3-.53.6-.8.89a46.58,46.58,0,0,1-3.37,3.37c-.29.27-.59.53-.89.79-.81.71-1.65,1.39-2.52,2.05-.27.21-.55.42-.83.61q-1.27.93-2.61,1.77l-.79.49q-.92.56-1.86,1.08c-.5.28-1,.55-1.53.8s-1.27.64-1.92.92l-.88.39-.47.2-.77.32c-1,.4-2,.77-3.08,1.1-.48.16-1,.3-1.44.44s-1,.27-1.45.39l-.77.19c-.43.11-.86.2-1.29.29s-.79.17-1.18.23l-.76.14-1,.16-.76.11c-1.07.14-2.16.25-3.26.32-.4,0-.81.05-1.22.06l-.69,0-1.39,0H71.1A49.38,49.38,0,0,1,43,398.11q-3.54-5.3-6.82-10.77a255.37,255.37,0,0,1-14.76-28.58c0-.54,0-1.08,0-1.63V288.08a16.46,16.46,0,0,1,16.45-16.44h13v61.09A49.5,49.5,0,0,0,53.24,348c.14.44.29.87.44,1.3a49.86,49.86,0,0,0,19.57,25h0a49.46,49.46,0,0,0,27.27,8.15h18.39A49.54,49.54,0,0,0,133.47,380.23Z"/><path class="cls-9" d="M155.61,271.63h84.83a16.45,16.45,0,0,1,16.45,16.45v69a49.67,49.67,0,0,1-49.67,49.67h-18.4a49.67,49.67,0,0,1-49.67-49.67v-69a16.45,16.45,0,0,1,16.45-16.45Z"/><path class="cls-10" d="M251.2,380.23a49.54,49.54,0,0,1-14.55,2.17H218.26a49.66,49.66,0,0,1-49.67-49.67V271.64h-13a16.44,16.44,0,0,0-16.44,16.44v69.05a49.66,49.66,0,0,0,49.67,49.66h18.39A49.66,49.66,0,0,0,251.2,380.23Z"/><path class="cls-9" d="M273.33,271.63h84.83a16.45,16.45,0,0,1,16.45,16.45v69a49.67,49.67,0,0,1-49.67,49.67h-18.4a49.67,49.67,0,0,1-49.67-49.67v-69a16.45,16.45,0,0,1,16.45-16.45Z"/><path class="cls-10" d="M368.93,380.23a49.54,49.54,0,0,1-14.55,2.17H336a49.66,49.66,0,0,1-49.67-49.67V271.64h-13a16.44,16.44,0,0,0-16.44,16.44v69.05a49.66,49.66,0,0,0,49.66,49.66H325A49.66,49.66,0,0,0,368.93,380.23Z"/><path class="cls-9" d="M492.34,288.08v66.46a251.38,251.38,0,0,1-13.41,27.38q-1.43,2.54-2.93,5-4,6.69-8.36,13.11h0c-.9.52-1.82,1-2.75,1.48-.22.12-.44.23-.67.33-.56.27-1.12.53-1.7.78-.34.15-.68.3-1,.43l-.37.16c-.48.19-1,.38-1.46.55s-1.06.38-1.6.55-1.08.35-1.63.5l-1.34.37-.59.14c-.45.12-.91.22-1.37.32h0c-.53.12-1.06.22-1.59.31l-.26.05-1.32.21-.6.09q-1.65.22-3.33.33l-1.25.07-.68,0-1.39,0h-18.4a49.65,49.65,0,0,1-49.56-46.55c-.07-1-.1-2.06-.1-3.11V288.08a16.39,16.39,0,0,1,1.62-7.13,12.57,12.57,0,0,1,.62-1.14,16.35,16.35,0,0,1,5.68-5.8,15.36,15.36,0,0,1,2.86-1.37h0a16.26,16.26,0,0,1,5.65-1H475.9A16.45,16.45,0,0,1,492.34,288.08Z"/><path class="cls-10" d="M472.11,382.4a47.92,47.92,0,0,0,6.82-.48q-1.43,2.54-2.93,5-4,6.69-8.36,13.11h0c-.9.52-1.82,1-2.75,1.48-.22.12-.44.23-.67.33-.56.27-1.12.53-1.7.78-.34.15-.68.3-1,.43l-.37.16c-.48.19-1,.38-1.46.55s-1.06.38-1.6.55-1.08.35-1.63.5l-1.34.37-.59.14c-.45.12-.91.22-1.37.32h0c-.53.12-1.06.22-1.59.31l-.26.05-1.32.21-.6.09q-1.65.22-3.33.33l-1.25.07-.68,0-1.39,0h-18.4a49.65,49.65,0,0,1-49.56-46.55c-.07-1-.1-2.06-.1-3.11V288.08a16.39,16.39,0,0,1,1.62-7.13,12.57,12.57,0,0,1,.62-1.14,16.35,16.35,0,0,1,5.68-5.8,17.09,17.09,0,0,1,2.86-1.37h0a16.53,16.53,0,0,1,5.65-1h13v61.09A49.5,49.5,0,0,0,406.43,348c.14.44.29.87.44,1.3A49.81,49.81,0,0,0,419.73,369s0,0,0,0a49.45,49.45,0,0,0,34,13.44Z"/><path class="cls-11" d="M191.68,28.33H321.42A19.58,19.58,0,0,1,341,47.91V59.66A37.38,37.38,0,0,1,303.62,97H209.48A37.38,37.38,0,0,1,172.1,59.66V47.91a19.58,19.58,0,0,1,19.58-19.58Z"/><path class="cls-12" d="M336.92,76.65A37.39,37.39,0,0,1,303.62,97H209.48A37.39,37.39,0,0,1,172.1,59.65V47.91a19.59,19.59,0,0,1,19.58-19.59h15.07v11a37.38,37.38,0,0,0,37.38,37.38Z"/><path class="cls-13" d="M238.55,115.61h36a0,0,0,0,1,0,0v45.17a18,18,0,0,1-18,18h0a18,18,0,0,1-18-18V115.61A0,0,0,0,1,238.55,115.61Z"/><path class="cls-14" d="M274.54,130.19a24.07,24.07,0,0,0-24.07,24.07v21.1a16.13,16.13,0,0,0,.17,2.42,18,18,0,0,1-12.1-17V115.61h36v14.58Z"/><circle class="cls-3" cx="166.55" cy="178.78" r="17"/><circle class="cls-3" cx="358" cy="234.16" r="17"/><circle class="cls-15" cx="332.75" cy="131.66" r="17"/><circle class="cls-15" cx="133.47" cy="282.66" r="17"/><circle class="cls-15" cx="268.2" cy="228.66" r="17"/><circle class="cls-3" cx="198.02" cy="358.16" r="17"/><circle class="cls-3" cx="324" cy="313.16" r="17"/><path class="cls-9" d="M207.54,97h98a0,0,0,0,1,0,0v3.07A15.51,15.51,0,0,1,290,115.61h-67a15.51,15.51,0,0,1-15.51-15.51V97A0,0,0,0,1,207.54,97Z"/><path class="cls-9" d="M297.55,3.36v25H215v-25a258.5,258.5,0,0,1,82.53.09Z"/></g></svg>